<svg version="1.1" viewBox="0 0 48 48" xmlns="http://www.w3.org/2000/svg" xmlns:xlink="http://www.w3.org/1999/xlink">
    <defs>
        <linearGradient id="linearGradient12">
            <stop stop-color="#197cf1" offset="0"/>
            <stop stop-color="#05a7e7" offset="1"/>
        </linearGradient>
        <linearGradient id="linearGradient9">
            <stop stop-color="#418b2a" offset="0"/>
            <stop stop-color="#50a536" offset="1"/>
        </linearGradient>
        <linearGradient id="linearGradient34">
            <stop stop-color="#20620f" offset="0"/>
            <stop stop-color="#479230" offset="1"/>
        </linearGradient>
        <linearGradient id="linearGradient2" x1="4" x2="4" y1="44" y2="4" gradientUnits="userSpaceOnUse">
            <stop stop-color="#e5e5e5" offset="0"/>
            <stop stop-color="#f2f2f2" offset="1"/>
        </linearGradient>
        <linearGradient id="linearGradient18" x1="32" x2="14" y1="32" y2="14" gradientUnits="userSpaceOnUse">
            <stop stop-opacity="0" offset="0"/>
            <stop stop-opacity=".1" offset="1"/>
        </linearGradient>
        <linearGradient id="linearGradient23" x1="6" x2="6" y1="28" y2="20" gradientUnits="userSpaceOnUse" xlink:href="#linearGradient12"/>
        <linearGradient id="linearGradient30" x1="34" x2="34" y1="14" y2="6" gradientUnits="userSpaceOnUse" xlink:href="#linearGradient12"/>
        <linearGradient id="linearGradient32" x1="20" x2="20" y1="28" y2="20" gradientUnits="userSpaceOnUse" xlink:href="#linearGradient9"/>
        <linearGradient id="linearGradient35" x1="6" x2="6" y1="14" y2="6" gradientUnits="userSpaceOnUse" xlink:href="#linearGradient9"/>
        <linearGradient id="linearGradient4" x1="2" x2="2" y1="46" y2="2" gradientUnits="userSpaceOnUse" xlink:href="#linearGradient34"/>
        <linearGradient id="linearGradient8" x1="32" x2="32" y1="46" y2="2" gradientTransform="matrix(1 0 0 .95455 0 1.0909)" gradientUnits="userSpaceOnUse" xlink:href="#linearGradient34"/>
        <linearGradient id="linearGradient13" x1="46" x2="2" y1="-4" y2="-4" gradientTransform="matrix(1 0 0 .95455 0 -1.0909)" gradientUnits="userSpaceOnUse" xlink:href="#linearGradient34"/>
        <linearGradient id="linearGradient16" x1="16" x2="16" y1="46" y2="2" gradientTransform="matrix(1 0 0 .95455 0 1.0909)" gradientUnits="userSpaceOnUse" xlink:href="#linearGradient34"/>
        <linearGradient id="linearGradient50" x1="46" x2="2" y1="-44.857" y2="-44.857" gradientTransform="matrix(1 0 0 1.1667 0 6.3333)" gradientUnits="userSpaceOnUse" xlink:href="#linearGradient34"/>
        <linearGradient id="linearGradient52" x1="46" x2="46" y1="44.857" y2="7.1429" gradientTransform="matrix(1 0 0 1.1667 0 -6.3333)" gradientUnits="userSpaceOnUse" xlink:href="#linearGradient34"/>
        <linearGradient id="linearGradient64" x1="46" x2="46" y1="44.857" y2="7.1429" gradientTransform="matrix(1 0 0 1.1667 0 -6.3333)" gradientUnits="userSpaceOnUse" xlink:href="#linearGradient34"/>
    </defs>
    <rect x="2" y="2" width="44" height="44" ry="2" fill="url(#linearGradient4)" stroke-linecap="round" stroke-linejoin="round" stroke-width="4.1391"/>
    <rect x="4" y="4" width="40" height="40" ry="0" fill="url(#linearGradient2)"/>
    <rect x="35" y="17" width="1" height="14" fill="url(#linearGradient52)"/>
    <rect x="21" y="3" width="1" height="14" fill="url(#linearGradient52)"/>
    <rect x="30" y="3" width="2" height="42" fill="url(#linearGradient8)"/>
    <rect transform="rotate(90)" x="30" y="-45" width="2" height="42" fill="url(#linearGradient13)"/>
    <rect transform="rotate(90)" x="26" y="-45" width="1" height="14" fill="url(#linearGradient50)"/>
    <rect x="26" y="3" width="1" height="14" fill="url(#linearGradient52)"/>
    <rect x="12.003" y="31" width="1" height="14" fill="url(#linearGradient64)"/>
    <rect x="16" y="3" width="2" height="42" fill="url(#linearGradient16)"/>
    <rect transform="rotate(90)" x="7" y="-31" width="1" height="14" fill="url(#linearGradient50)"/>
    <rect transform="rotate(90)" x="16" y="-45" width="2" height="42" fill="url(#linearGradient13)"/>
    <rect transform="rotate(90)" x="12" y="-31" width="1" height="14" fill="url(#linearGradient50)"/>
    <rect transform="rotate(90)" x="35" y="-17.003" width="1" height="14" fill="url(#linearGradient50)"/>
    <rect x="40" y="17" width="1" height="14" fill="url(#linearGradient52)"/>
    <g>
        <path d="m14 6 32 32v-12l-12-12 8-8 4 4-2 34-20 2-18-18 6-8-6-6z" fill="url(#linearGradient18)" stroke-linecap="round" stroke-linejoin="round" stroke-width="4"/>
        <rect x="20" y="20" width="8" height="8" ry="0" fill="url(#linearGradient32)"/>
        <rect x="6" y="6" width="8" height="8" ry="0" fill="url(#linearGradient35)"/>
        <rect x="6" y="20" width="8" height="8" ry="0" fill="url(#linearGradient23)"/>
        <rect x="34" y="6" width="8" height="8" ry="0" fill="url(#linearGradient30)"/>
    </g>
    <g fill="none" stroke="#333" stroke-linecap="round" stroke-linejoin="round">
        <path d="m10 41v-6l-2 2" display="none"/>
        <path transform="translate(0,14)" d="m37 13h1a2 2 135 0 0 2-2v-2a2 2 45 0 0-2-2 2 2 135 0 0-2 2 2 2 45 0 0 2 2 2 2 135 0 0 2-2" display="none"/>
        <path transform="translate(0,-14)" d="m26 27h-4l3.2-2.4a2 2 116.57 0 0 0.8-1.6 2 2 45 0 0-2-2 2 2 135 0 0-2 2" display="none"/>
    </g>
    <path d="m46 43c0 1.108-0.892 2-2 2h-40c-1.108 0-2-0.892-2-2v1c0 1.108 0.892 2 2 2h40c1.108 0 2-0.892 2-2z" fill-opacity=".2" stroke-linecap="round" stroke-linejoin="round" stroke-width="4.1391"/>
    <rect transform="rotate(90)" x="21" y="-45" width="1" height="14" fill="url(#linearGradient50)"/>
    <rect x="7.0027" y="31" width="1" height="14" fill="url(#linearGradient64)"/>
    <rect transform="rotate(90)" x="40" y="-17.003" width="1" height="14" fill="url(#linearGradient50)"/>
</svg>
